<svg width="21" height="17" viewBox="0 0 21 17" fill="none" xmlns="http://www.w3.org/2000/svg">
<path d="M10.4998 0.5C10.1967 0.5 9.90605 0.620407 9.69173 0.834733C9.4774 1.04906 9.35699 1.33975 9.35699 1.64285C9.35699 1.94595 9.4774 2.23664 9.69173 2.45096C9.90605 2.66529 10.1967 2.7857 10.4998 2.7857H19.6426C19.9457 2.7857 20.2364 2.66529 20.4507 2.45096C20.6651 2.23664 20.7855 1.94595 20.7855 1.64285C20.7855 1.33975 20.6651 1.04906 20.4507 0.834733C20.2364 0.620407 19.9457 0.5 19.6426 0.5H10.4998Z" fill="white"/>
<path d="M4.78717 8.49966C4.78717 8.19656 4.90758 7.90587 5.1219 7.69154C5.33623 7.47722 5.62692 7.35681 5.93002 7.35681H15.0728C15.3759 7.35681 15.6666 7.47722 15.8809 7.69154C16.0952 7.90587 16.2156 8.19656 16.2156 8.49966C16.2156 8.80276 16.0952 9.09345 15.8809 9.30777C15.6666 9.5221 15.3759 9.64251 15.0728 9.64251H5.93002C5.62692 9.64251 5.33623 9.5221 5.1219 9.30777C4.90758 9.09345 4.78717 8.80276 4.78717 8.49966Z" fill="white"/>
<path d="M0.214539 15.3572C0.214539 15.0541 0.334945 14.7634 0.549271 14.5491C0.763596 14.3348 1.05428 14.2144 1.35739 14.2144H10.5002C10.8033 14.2144 11.094 14.3348 11.3083 14.5491C11.5226 14.7634 11.643 15.0541 11.643 15.3572C11.643 15.6603 11.5226 15.951 11.3083 16.1653C11.094 16.3796 10.8033 16.5001 10.5002 16.5001H1.35739C1.05428 16.5001 0.763596 16.3796 0.549271 16.1653C0.334945 15.951 0.214539 15.6603 0.214539 15.3572Z" fill="white"/>
</svg>
